<svg xmlns="http://www.w3.org/2000/svg" width="14" height="15" fill="none"><path fill="#000" d="M11.223 3.755h-.233L9.018 1.783a.412.412 0 0 0-.577 0 .412.412 0 0 0 0 .578l1.394 1.394h-5.67l1.394-1.394a.412.412 0 0 0 0-.578.412.412 0 0 0-.577 0L3.016 3.755h-.234c-.525 0-1.615 0-1.615 1.493 0 .566.116.94.361 1.185.14.145.31.221.49.262.17.04.35.047.525.047h8.914c.18 0 .35-.012.513-.047.49-.117.863-.467.863-1.447 0-1.493-1.09-1.493-1.61-1.493ZM11.113 7.5H2.84a.582.582 0 0 0-.578.677l.49 2.998c.164 1.003.601 2.158 2.544 2.158h3.272c1.966 0 2.316-.986 2.526-2.088l.59-3.05a.581.581 0 0 0-.572-.695Zm-4.924 3.762a.405.405 0 1 1-.81 0V9.337a.41.41 0 0 1 .408-.408c.221 0 .402.187.402.409v1.925Zm2.497 0c0 .228-.18.409-.408.409a.41.41 0 0 1-.409-.409V9.337c0-.221.187-.408.409-.408a.41.41 0 0 1 .408.409v1.925Z"/></svg>