<svg xmlns="http://www.w3.org/2000/svg" width="14" height="15" fill="none"><path fill="#000" d="M12.688 5.167a.44.44 0 0 1-.438.437H1.75a.44.44 0 0 1-.438-.437.44.44 0 0 1 .438-.438h.595l.222-1.056c.21-1.02.647-1.96 2.385-1.96h4.095c1.739 0 2.176.94 2.386 1.96l.222 1.056h.595a.44.44 0 0 1 .438.438ZM12.938 8.468c-.087-.962-.344-1.989-2.216-1.989H3.278c-1.872 0-2.123 1.027-2.216 1.99L.735 12.02c-.04.443.105.886.408 1.219.31.338.747.53 1.214.53h1.096c.945 0 1.126-.542 1.243-.897l.116-.35c.135-.403.17-.502.695-.502h2.986c.525 0 .543.058.694.502l.117.35c.117.355.298.898 1.243.898h1.096c.461 0 .904-.193 1.214-.531.303-.332.449-.776.408-1.22l-.327-3.552ZM5.25 9.688H3.5a.44.44 0 0 1-.438-.438.44.44 0 0 1 .438-.438h1.75a.44.44 0 0 1 .437.438.44.44 0 0 1-.437.437Zm5.25 0H8.75a.44.44 0 0 1-.438-.438.44.44 0 0 1 .438-.438h1.75a.44.44 0 0 1 .437.438.44.44 0 0 1-.437.437Z"/></svg>