<svg xmlns="http://www.w3.org/2000/svg" width="14" height="15" fill="none"><path fill="#000" d="M9.917 1.667H4.083A2.34 2.34 0 0 0 1.75 4v7a2.34 2.34 0 0 0 2.333 2.333h5.834A2.34 2.34 0 0 0 12.25 11V4a2.34 2.34 0 0 0-2.333-2.333Zm-3.582 9.415a.433.433 0 0 1-.31.128.433.433 0 0 1-.308-.128l-.38-.38-.361.362a.433.433 0 0 1-.31.129.433.433 0 0 1-.309-.129.44.44 0 0 1 0-.618l.362-.362-.344-.344a.44.44 0 0 1 0-.618.44.44 0 0 1 .618 0l.345.344.361-.362a.44.44 0 0 1 .619 0c.169.17.169.45 0 .618l-.362.362.379.38c.17.168.17.448 0 .618Zm2.118.204a.58.58 0 0 1-.584-.578v-.011c0-.321.263-.584.584-.584a.585.585 0 0 1 0 1.173Zm1.178-1.26a.59.59 0 0 1-.59-.584.58.58 0 0 1 .578-.583h.012c.32 0 .583.263.583.583 0 .321-.262.584-.583.584Zm.869-4.13c0 .56-.46 1.02-1.02 1.02H4.52c-.56 0-1.02-.46-1.02-1.02V4.437c0-.56.46-1.02 1.02-1.02h4.96c.56 0 1.02.46 1.02 1.02v1.459Z"/></svg>