<svg xmlns="http://www.w3.org/2000/svg" width="14" height="15" fill="none"><path fill="#000" d="M12.833 12.896h-.583V6.322c0-.362-.163-.7-.45-.922l-.717-.56-.011-1.43a.58.58 0 0 0-.584-.577H8.5l-.782-.606a1.157 1.157 0 0 0-1.435 0L2.2 5.4c-.286.222-.449.56-.449.916l-.03 6.58h-.553a.44.44 0 0 0-.438.437c0 .24.198.438.438.438h11.666a.44.44 0 0 0 .438-.438.44.44 0 0 0-.438-.437ZM3.792 7.937v-.875c0-.32.262-.583.583-.583h1.167c.32 0 .583.263.583.583v.875c0 .321-.263.584-.583.584H4.375a.585.585 0 0 1-.583-.584Zm4.666 4.959H5.542v-1.604c0-.485.39-.875.875-.875h1.166c.484 0 .875.39.875.875v1.604Zm1.75-4.959c0 .321-.262.584-.583.584H8.458a.585.585 0 0 1-.583-.584v-.875c0-.32.262-.583.583-.583h1.167c.32 0 .583.263.583.583v.875Z"/></svg>