<svg xmlns="http://www.w3.org/2000/svg" width="144" height="19" fill="none"><path fill="#000" d="M13.487 0H5.522C2.062 0 0 2.062 0 5.52v7.951C0 16.939 2.063 19 5.522 19h7.956C16.938 19 19 16.939 19 13.48V5.52C19.01 2.061 16.947 0 13.487 0Zm-6.73 14.155a.47.47 0 0 1-.474.475H3.63a.47.47 0 0 1-.475-.475V9.766c0-.598.484-1.083 1.083-1.083h2.044a.47.47 0 0 1 .475.475v4.997Zm4.544 0a.47.47 0 0 1-.475.475H8.174a.47.47 0 0 1-.475-.475V5.453c0-.599.485-1.083 1.083-1.083h1.445c.599 0 1.084.484 1.084 1.083v8.702h-.01Zm4.553 0a.47.47 0 0 1-.475.475h-2.652a.47.47 0 0 1-.475-.475v-3.372a.47.47 0 0 1 .475-.476h2.043c.6 0 1.084.485 1.084 1.083v2.765ZM33.078 15.192a9.443 9.443 0 0 1-2.576-.352c-.821-.245-1.482-.56-1.984-.944l.88-1.952c.48.352 1.051.635 1.712.848.662.213 1.323.32 1.984.32.736 0 1.28-.107 1.632-.32.352-.224.528-.517.528-.88a.803.803 0 0 0-.32-.656 2.194 2.194 0 0 0-.8-.432 15.04 15.04 0 0 0-1.312-.352c-.853-.203-1.552-.405-2.096-.608a3.466 3.466 0 0 1-1.408-.976c-.384-.448-.576-1.045-.576-1.792 0-.65.176-1.237.528-1.76.352-.533.88-.955 1.584-1.264.715-.31 1.584-.464 2.608-.464.715 0 1.414.085 2.096.256.683.17 1.28.416 1.792.736l-.8 1.968c-1.034-.587-2.069-.88-3.104-.88-.725 0-1.264.117-1.616.352-.341.235-.512.544-.512.928s.198.672.592.864c.406.181 1.019.363 1.84.544.854.203 1.552.405 2.096.608a3.409 3.409 0 0 1 1.392.96c.395.437.592 1.03.592 1.776 0 .64-.181 1.227-.544 1.76-.352.523-.885.939-1.6 1.248-.714.31-1.584.464-2.608.464ZM43.121 11.624l-1.2 1.184V15h-2.496V3.128h2.496v6.72l3.648-3.456h2.976l-3.584 3.648L48.865 15h-3.024l-2.72-3.376Z"/><path fill="#000" d="m58.032 6.392-3.888 9.136c-.395.992-.885 1.69-1.472 2.096-.576.405-1.275.608-2.096.608-.448 0-.89-.07-1.328-.208-.437-.139-.795-.33-1.072-.576l.912-1.776a2.167 2.167 0 0 0 1.408.544c.341 0 .619-.085.832-.256.213-.16.405-.432.576-.816l.032-.08-3.728-8.672h2.576l2.416 5.84 2.432-5.84h2.4ZM64.138 6.264c.8 0 1.526.187 2.176.56a3.88 3.88 0 0 1 1.552 1.552c.374.661.56 1.435.56 2.32 0 .885-.186 1.664-.56 2.336a4.018 4.018 0 0 1-1.552 1.552c-.65.363-1.376.544-2.176.544-1.098 0-1.962-.347-2.592-1.04v4.016H59.05V6.392h2.384v.992c.62-.747 1.52-1.12 2.704-1.12Zm-.432 6.816c.64 0 1.163-.213 1.568-.64.416-.437.624-1.019.624-1.744 0-.725-.208-1.301-.624-1.728-.405-.437-.928-.656-1.568-.656s-1.168.219-1.584.656c-.405.427-.608 1.003-.608 1.728 0 .725.203 1.307.608 1.744.416.427.944.64 1.584.64ZM72.481 7.528c.299-.416.699-.73 1.2-.944.512-.213 1.099-.32 1.76-.32v2.304a9.01 9.01 0 0 0-.56-.032c-.714 0-1.274.203-1.68.608-.405.395-.608.992-.608 1.792V15h-2.496V6.392h2.384v1.136ZM80.943 15.128c-.906 0-1.722-.187-2.448-.56a4.292 4.292 0 0 1-1.68-1.584c-.405-.672-.608-1.435-.608-2.288 0-.853.203-1.616.608-2.288a4.18 4.18 0 0 1 1.68-1.568c.726-.384 1.542-.576 2.448-.576.907 0 1.718.192 2.432.576a4.18 4.18 0 0 1 1.68 1.568c.406.672.608 1.435.608 2.288 0 .853-.202 1.616-.608 2.288a4.292 4.292 0 0 1-1.68 1.584c-.714.373-1.525.56-2.432.56Zm0-2.048c.64 0 1.163-.213 1.568-.64.416-.437.624-1.019.624-1.744 0-.725-.208-1.301-.624-1.728-.405-.437-.928-.656-1.568-.656s-1.168.219-1.584.656c-.416.427-.624 1.003-.624 1.728 0 .725.208 1.307.624 1.744.416.427.944.64 1.584.64ZM88.166 15.128a1.5 1.5 0 0 1-1.104-.448c-.298-.299-.448-.672-.448-1.12 0-.459.15-.827.448-1.104a1.53 1.53 0 0 1 1.104-.432c.438 0 .806.144 1.104.432.299.277.448.645.448 1.104 0 .448-.149.821-.448 1.12a1.5 1.5 0 0 1-1.104.448ZM107.904 3.8 104.24 15h-2.784l-2.464-7.584L96.448 15H93.68L90 3.8h2.688l2.528 7.872 2.64-7.872h2.4l2.56 7.936 2.608-7.936h2.48ZM112.007 6.264c1.333 0 2.357.32 3.072.96.714.63 1.072 1.584 1.072 2.864V15h-2.336v-1.072c-.47.8-1.344 1.2-2.624 1.2-.662 0-1.238-.112-1.728-.336-.48-.224-.848-.533-1.104-.928a2.415 2.415 0 0 1-.384-1.344c0-.8.298-1.43.896-1.888.608-.459 1.541-.688 2.8-.688h1.984c0-.544-.166-.96-.496-1.248-.331-.299-.827-.448-1.488-.448-.459 0-.912.075-1.36.224a3.46 3.46 0 0 0-1.12.576l-.896-1.744c.469-.33 1.029-.587 1.68-.768a7.644 7.644 0 0 1 2.032-.272Zm-.192 7.184c.426 0 .805-.096 1.136-.288.33-.203.565-.496.704-.88v-.88h-1.712c-1.024 0-1.536.336-1.536 1.008 0 .32.122.576.368.768.256.181.602.272 1.04.272ZM118.41 3.128h2.496V15h-2.496V3.128ZM123.222 3.128h2.496V15h-2.496V3.128ZM136.467 10.728c0 .032-.016.256-.048.672h-6.512c.117.533.394.955.832 1.264.437.31.981.464 1.632.464.448 0 .842-.064 1.184-.192.352-.139.677-.352.976-.64l1.328 1.44c-.811.928-1.995 1.392-3.552 1.392-.971 0-1.83-.187-2.576-.56-.747-.384-1.323-.912-1.728-1.584-.406-.672-.608-1.435-.608-2.288 0-.843.197-1.6.592-2.272a4.194 4.194 0 0 1 1.648-1.584c.704-.384 1.488-.576 2.352-.576.842 0 1.605.181 2.288.544a3.909 3.909 0 0 1 1.6 1.568c.394.672.592 1.456.592 2.352Zm-4.464-2.576c-.566 0-1.04.16-1.424.48-.384.32-.619.757-.704 1.312h4.24c-.086-.544-.32-.976-.704-1.296-.384-.33-.854-.496-1.408-.496ZM143.681 14.584a2.68 2.68 0 0 1-.912.416 4.747 4.747 0 0 1-1.12.128c-1.024 0-1.819-.261-2.384-.784-.555-.523-.832-1.29-.832-2.304V8.504h-1.328v-1.92h1.328V4.488h2.496v2.096h2.144v1.92h-2.144v3.504c0 .363.09.645.272.848.192.192.458.288.8.288.394 0 .73-.107 1.008-.32l.672 1.76Z"/></svg>