<svg xmlns="http://www.w3.org/2000/svg" width="14" height="15" fill="none"><path fill="#000" d="M9.818 9.623a.583.583 0 0 1 .904.49v.753c0 .74-.578 1.534-1.272 1.767l-1.86.619c-.327.11-.858.11-1.18 0l-1.86-.619c-.7-.233-1.272-1.026-1.272-1.767v-.758c0-.461.514-.741.899-.49l1.201.781c.461.31 1.045.461 1.628.461s1.167-.152 1.627-.46l1.185-.777Z"/><path fill="#000" d="M11.655 4.268 8.161 1.976c-.63-.414-1.668-.414-2.298 0L2.35 4.268c-1.126.73-1.126 2.38 0 3.115l.933.607 2.579 1.68c.63.414 1.668.414 2.298 0l2.56-1.68.8-.525V9.25c0 .24.198.438.437.438a.44.44 0 0 0 .438-.438V6.38c.233-.752-.006-1.627-.741-2.112Z"/></svg>